<svg id="visual" viewBox="0 0 900 150" width="900" height="150" xmlns="http://www.w3.org/2000/svg" xmlns:xlink="http://www.w3.org/1999/xlink" version="1.1"><path d="M0 107L21.5 105.2C43 103.3 86 99.7 128.8 97.7C171.7 95.7 214.3 95.3 257.2 93.2C300 91 343 87 385.8 89C428.7 91 471.3 99 514.2 102C557 105 600 103 642.8 100.8C685.7 98.7 728.3 96.3 771.2 94.2C814 92 857 90 878.5 89L900 88L900 0L878.5 0C857 0 814 0 771.2 0C728.3 0 685.7 0 642.8 0C600 0 557 0 514.2 0C471.3 0 428.7 0 385.8 0C343 0 300 0 257.2 0C214.3 0 171.7 0 128.8 0C86 0 43 0 21.5 0L0 0Z" fill="#003057"></path><path d="M0 61L21.5 63.2C43 65.3 86 69.7 128.8 71.7C171.7 73.7 214.3 73.3 257.2 72.8C300 72.3 343 71.7 385.8 74.3C428.7 77 471.3 83 514.2 87.2C557 91.3 600 93.7 642.8 92C685.7 90.3 728.3 84.7 771.2 83.2C814 81.7 857 84.3 878.5 85.7L900 87L900 0L878.5 0C857 0 814 0 771.2 0C728.3 0 685.7 0 642.8 0C600 0 557 0 514.2 0C471.3 0 428.7 0 385.8 0C343 0 300 0 257.2 0C214.3 0 171.7 0 128.8 0C86 0 43 0 21.5 0L0 0Z" fill="#415d7d"></path><path d="M0 49L21.5 53.8C43 58.7 86 68.3 128.8 71.3C171.7 74.3 214.3 70.7 257.2 67.2C300 63.7 343 60.3 385.8 56.8C428.7 53.3 471.3 49.7 514.2 51.8C557 54 600 62 642.8 67.5C685.7 73 728.3 76 771.2 73.7C814 71.3 857 63.7 878.5 59.8L900 56L900 0L878.5 0C857 0 814 0 771.2 0C728.3 0 685.7 0 642.8 0C600 0 557 0 514.2 0C471.3 0 428.7 0 385.8 0C343 0 300 0 257.2 0C214.3 0 171.7 0 128.8 0C86 0 43 0 21.5 0L0 0Z" fill="#778da4"></path><path d="M0 56L21.5 54.3C43 52.7 86 49.3 128.8 49.2C171.7 49 214.3 52 257.2 50.2C300 48.3 343 41.7 385.8 37.8C428.7 34 471.3 33 514.2 32C557 31 600 30 642.8 30.3C685.7 30.7 728.3 32.3 771.2 35.8C814 39.3 857 44.7 878.5 47.3L900 50L900 0L878.5 0C857 0 814 0 771.2 0C728.3 0 685.7 0 642.8 0C600 0 557 0 514.2 0C471.3 0 428.7 0 385.8 0C343 0 300 0 257.2 0C214.3 0 171.7 0 128.8 0C86 0 43 0 21.5 0L0 0Z" fill="#b2c0cc"></path><path d="M0 13L21.5 15.2C43 17.3 86 21.7 128.8 24C171.7 26.3 214.3 26.7 257.2 26C300 25.3 343 23.7 385.8 23.5C428.7 23.3 471.3 24.7 514.2 25C557 25.3 600 24.7 642.8 22.8C685.7 21 728.3 18 771.2 16.3C814 14.7 857 14.3 878.5 14.2L900 14L900 0L878.5 0C857 0 814 0 771.2 0C728.3 0 685.7 0 642.8 0C600 0 557 0 514.2 0C471.3 0 428.7 0 385.8 0C343 0 300 0 257.2 0C214.3 0 171.7 0 128.8 0C86 0 43 0 21.5 0L0 0Z" fill="#f2f5f7"></path></svg>