<svg id="visual" viewBox="0 0 900 150" width="900" height="150" xmlns="http://www.w3.org/2000/svg" xmlns:xlink="http://www.w3.org/1999/xlink" version="1.1"><path d="M0 41L21.5 42.8C43 44.7 86 48.3 128.8 50.3C171.7 52.3 214.3 52.7 257.2 54.8C300 57 343 61 385.8 59C428.7 57 471.3 49 514.2 46C557 43 600 45 642.8 47.2C685.7 49.3 728.3 51.7 771.2 53.8C814 56 857 58 878.5 59L900 60L900 151L878.5 151C857 151 814 151 771.2 151C728.3 151 685.7 151 642.8 151C600 151 557 151 514.2 151C471.3 151 428.7 151 385.8 151C343 151 300 151 257.2 151C214.3 151 171.7 151 128.8 151C86 151 43 151 21.5 151L0 151Z" fill="#003057"></path><path d="M0 87L21.5 84.8C43 82.7 86 78.3 128.8 76.3C171.7 74.3 214.3 74.7 257.2 75.2C300 75.7 343 76.3 385.8 73.7C428.7 71 471.3 65 514.2 60.8C557 56.7 600 54.3 642.8 56C685.7 57.7 728.3 63.3 771.2 64.8C814 66.3 857 63.7 878.5 62.3L900 61L900 151L878.5 151C857 151 814 151 771.2 151C728.3 151 685.7 151 642.8 151C600 151 557 151 514.2 151C471.3 151 428.7 151 385.8 151C343 151 300 151 257.2 151C214.3 151 171.7 151 128.8 151C86 151 43 151 21.5 151L0 151Z" fill="#415d7d"></path><path d="M0 99L21.5 94.2C43 89.3 86 79.7 128.8 76.7C171.7 73.7 214.3 77.3 257.2 80.8C300 84.3 343 87.7 385.8 91.2C428.7 94.7 471.3 98.3 514.2 96.2C557 94 600 86 642.8 80.5C685.7 75 728.3 72 771.2 74.3C814 76.7 857 84.3 878.5 88.2L900 92L900 151L878.5 151C857 151 814 151 771.2 151C728.3 151 685.7 151 642.8 151C600 151 557 151 514.2 151C471.3 151 428.7 151 385.8 151C343 151 300 151 257.2 151C214.3 151 171.7 151 128.8 151C86 151 43 151 21.5 151L0 151Z" fill="#778da4"></path><path d="M0 92L21.5 93.7C43 95.3 86 98.7 128.8 98.8C171.7 99 214.3 96 257.2 97.8C300 99.7 343 106.3 385.8 110.2C428.7 114 471.3 115 514.2 116C557 117 600 118 642.8 117.7C685.7 117.3 728.3 115.7 771.2 112.2C814 108.7 857 103.3 878.5 100.7L900 98L900 151L878.5 151C857 151 814 151 771.2 151C728.3 151 685.7 151 642.8 151C600 151 557 151 514.2 151C471.3 151 428.7 151 385.8 151C343 151 300 151 257.2 151C214.3 151 171.7 151 128.8 151C86 151 43 151 21.5 151L0 151Z" fill="#b2c0cc"></path><path d="M0 135L21.5 132.8C43 130.7 86 126.3 128.8 124C171.7 121.7 214.3 121.3 257.2 122C300 122.7 343 124.3 385.8 124.5C428.7 124.7 471.3 123.3 514.2 123C557 122.7 600 123.3 642.8 125.2C685.7 127 728.3 130 771.2 131.7C814 133.3 857 133.7 878.5 133.8L900 134L900 151L878.5 151C857 151 814 151 771.2 151C728.3 151 685.7 151 642.8 151C600 151 557 151 514.2 151C471.3 151 428.7 151 385.8 151C343 151 300 151 257.2 151C214.3 151 171.7 151 128.8 151C86 151 43 151 21.5 151L0 151Z" fill="#f2f5f7"></path></svg>