<svg id="visual" viewBox="0 0 900 180" width="900" height="180" xmlns="http://www.w3.org/2000/svg" xmlns:xlink="http://www.w3.org/1999/xlink" version="1.1"><rect width="900" height="180" fill="#FFEAEC"></rect><g><g transform="translate(313 88)"><path d="M51.4 -17.6C57.6 2.4 47.4 26.9 29.5 39.7C11.5 52.6 -14.3 53.9 -30.5 42.1C-46.6 30.3 -53.2 5.4 -46.5 -15.2C-39.8 -35.8 -19.9 -52.3 1.3 -52.7C22.6 -53.1 45.2 -37.6 51.4 -17.6Z" fill="none" stroke="#003057" stroke-width="20"></path></g><g transform="translate(118 85)"><path d="M46.1 -13.8C52.1 3.7 44.3 26.9 28.3 38.3C12.4 49.6 -11.5 49.2 -28.7 37.3C-45.9 25.3 -56.4 1.8 -50.4 -15.5C-44.5 -32.7 -22.3 -43.7 -1.1 -43.4C20 -43 40 -31.2 46.1 -13.8Z" fill="none" stroke="#003057" stroke-width="20"></path></g><g transform="translate(776 100)"><path d="M47.1 -15.3C53 3 44.3 26 28.8 36.4C13.4 46.9 -8.9 44.8 -23.3 33.9C-37.7 23 -44.4 3.2 -39.2 -14C-34 -31.3 -17 -46 1.8 -46.6C20.6 -47.2 41.1 -33.6 47.1 -15.3Z" fill="none" stroke="#003057" stroke-width="20"></path></g><g transform="translate(566 91)"><path d="M37.3 -11.1C42 2.5 35.2 20.8 23 29C10.8 37.3 -6.8 35.4 -19.4 26.4C-32 17.3 -39.5 1 -35.5 -11.6C-31.4 -24.3 -15.7 -33.2 0.3 -33.3C16.3 -33.4 32.6 -24.6 37.3 -11.1Z" stroke="#003057" fill="none" stroke-width="20"></path></g></g></svg>