<svg id="visual" viewBox="0 0 900 180" width="900" height="180" xmlns="http://www.w3.org/2000/svg" xmlns:xlink="http://www.w3.org/1999/xlink" version="1.1"><path d="M0 93L129 93L129 103L257 103L257 99L386 99L386 66L514 66L514 67L643 67L643 94L771 94L771 103L900 103L900 87L900 0L900 0L771 0L771 0L643 0L643 0L514 0L514 0L386 0L386 0L257 0L257 0L129 0L129 0L0 0Z" fill="#f2f5f7"></path><path d="M0 67L129 67L129 53L257 53L257 70L386 70L386 64L514 64L514 47L643 47L643 47L771 47L771 39L900 39L900 68L900 0L900 0L771 0L771 0L643 0L643 0L514 0L514 0L386 0L386 0L257 0L257 0L129 0L129 0L0 0Z" fill="#778da4"></path><path d="M0 24L129 24L129 23L257 23L257 19L386 19L386 18L514 18L514 35L643 35L643 25L771 25L771 40L900 40L900 42L900 0L900 0L771 0L771 0L643 0L643 0L514 0L514 0L386 0L386 0L257 0L257 0L129 0L129 0L0 0Z" fill="#003057"></path></svg>