<svg id="visual" viewBox="0 0 960 140" width="960" height="140" xmlns="http://www.w3.org/2000/svg" xmlns:xlink="http://www.w3.org/1999/xlink" version="1.1"><path d="M0 79L22.8 80.5C45.7 82 91.3 85 137 88.5C182.7 92 228.3 96 274 98.5C319.7 101 365.3 102 411.2 101.7C457 101.3 503 99.7 548.8 101.2C594.7 102.7 640.3 107.3 686 109.3C731.7 111.3 777.3 110.7 823 108.7C868.7 106.7 914.3 103.3 937.2 101.7L960 100L960 0L937.2 0C914.3 0 868.7 0 823 0C777.3 0 731.7 0 686 0C640.3 0 594.7 0 548.8 0C503 0 457 0 411.2 0C365.3 0 319.7 0 274 0C228.3 0 182.7 0 137 0C91.3 0 45.7 0 22.8 0L0 0Z" fill="#003057"></path><path d="M0 95L22.8 93.2C45.7 91.3 91.3 87.7 137 86.3C182.7 85 228.3 86 274 81.2C319.7 76.3 365.3 65.7 411.2 65.5C457 65.3 503 75.7 548.8 78.8C594.7 82 640.3 78 686 77.5C731.7 77 777.3 80 823 82.3C868.7 84.7 914.3 86.3 937.2 87.2L960 88L960 0L937.2 0C914.3 0 868.7 0 823 0C777.3 0 731.7 0 686 0C640.3 0 594.7 0 548.8 0C503 0 457 0 411.2 0C365.3 0 319.7 0 274 0C228.3 0 182.7 0 137 0C91.3 0 45.7 0 22.8 0L0 0Z" fill="#415d7d"></path><path d="M0 58L22.8 60.5C45.7 63 91.3 68 137 65.8C182.7 63.7 228.3 54.3 274 50C319.7 45.7 365.3 46.3 411.2 51.2C457 56 503 65 548.8 67.8C594.7 70.7 640.3 67.3 686 66.5C731.7 65.7 777.3 67.3 823 65.8C868.7 64.3 914.3 59.7 937.2 57.3L960 55L960 0L937.2 0C914.3 0 868.7 0 823 0C777.3 0 731.7 0 686 0C640.3 0 594.7 0 548.8 0C503 0 457 0 411.2 0C365.3 0 319.7 0 274 0C228.3 0 182.7 0 137 0C91.3 0 45.7 0 22.8 0L0 0Z" fill="#778da4"></path><path d="M0 45L22.8 42.3C45.7 39.7 91.3 34.3 137 34.3C182.7 34.3 228.3 39.7 274 42.2C319.7 44.7 365.3 44.3 411.2 45.2C457 46 503 48 548.8 49.5C594.7 51 640.3 52 686 48.7C731.7 45.3 777.3 37.7 823 34.8C868.7 32 914.3 34 937.2 35L960 36L960 0L937.2 0C914.3 0 868.7 0 823 0C777.3 0 731.7 0 686 0C640.3 0 594.7 0 548.8 0C503 0 457 0 411.2 0C365.3 0 319.7 0 274 0C228.3 0 182.7 0 137 0C91.3 0 45.7 0 22.8 0L0 0Z" fill="#b2c0cc"></path><path d="M0 18L22.8 19.8C45.7 21.7 91.3 25.3 137 25.2C182.7 25 228.3 21 274 19C319.7 17 365.3 17 411.2 18.3C457 19.7 503 22.3 548.8 24.2C594.7 26 640.3 27 686 25.2C731.7 23.3 777.3 18.7 823 16.3C868.7 14 914.3 14 937.2 14L960 14L960 0L937.2 0C914.3 0 868.7 0 823 0C777.3 0 731.7 0 686 0C640.3 0 594.7 0 548.8 0C503 0 457 0 411.2 0C365.3 0 319.7 0 274 0C228.3 0 182.7 0 137 0C91.3 0 45.7 0 22.8 0L0 0Z" fill="#f2f5f7"></path></svg>