<svg id="visual" viewBox="0 0 960 250" width="960" height="250" xmlns="http://www.w3.org/2000/svg" xmlns:xlink="http://www.w3.org/1999/xlink" version="1.1"><rect x="0" y="0" width="960" height="250" fill="#003057"></rect><path d="M0 129L137 129L137 133L274 133L274 115L411 115L411 119L549 119L549 152L686 152L686 114L823 114L823 107L960 107L960 133L960 251L960 251L823 251L823 251L686 251L686 251L549 251L549 251L411 251L411 251L274 251L274 251L137 251L137 251L0 251Z" fill="#1f496b"></path><path d="M0 186L137 186L137 169L274 169L274 161L411 161L411 163L549 163L549 190L686 190L686 172L823 172L823 154L960 154L960 189L960 251L960 251L823 251L823 251L686 251L686 251L549 251L549 251L411 251L411 251L274 251L274 251L137 251L137 251L0 251Z" fill="#7086af"></path><path d="M0 194L137 194L137 209L274 209L274 222L411 222L411 185L549 185L549 202L686 202L686 189L823 189L823 216L960 216L960 215L960 251L960 251L823 251L823 251L686 251L686 251L549 251L549 251L411 251L411 251L274 251L274 251L137 251L137 251L0 251Z" fill="#c2c8f6"></path></svg>