<svg id="visual" viewBox="0 0 960 300" width="960" height="300" xmlns="http://www.w3.org/2000/svg" xmlns:xlink="http://www.w3.org/1999/xlink" version="1.1"><path d="M0 246L22.8 234.2C45.7 222.3 91.3 198.7 137 197.5C182.7 196.3 228.3 217.7 274 214.8C319.7 212 365.3 185 411.2 184.5C457 184 503 210 548.8 215.5C594.7 221 640.3 206 686 199C731.7 192 777.3 193 823 199C868.7 205 914.3 216 937.2 221.5L960 227L960 0L937.2 0C914.3 0 868.7 0 823 0C777.3 0 731.7 0 686 0C640.3 0 594.7 0 548.8 0C503 0 457 0 411.2 0C365.3 0 319.7 0 274 0C228.3 0 182.7 0 137 0C91.3 0 45.7 0 22.8 0L0 0Z" fill="#ffeaec"></path><path d="M0 145L22.8 151.7C45.7 158.3 91.3 171.7 137 169.2C182.7 166.7 228.3 148.3 274 150.5C319.7 152.7 365.3 175.3 411.2 184C457 192.7 503 187.3 548.8 174.2C594.7 161 640.3 140 686 138.7C731.7 137.3 777.3 155.7 823 162.7C868.7 169.7 914.3 165.3 937.2 163.2L960 161L960 0L937.2 0C914.3 0 868.7 0 823 0C777.3 0 731.7 0 686 0C640.3 0 594.7 0 548.8 0C503 0 457 0 411.2 0C365.3 0 319.7 0 274 0C228.3 0 182.7 0 137 0C91.3 0 45.7 0 22.8 0L0 0Z" fill="#ffece7"></path><path d="M0 160L22.8 151.3C45.7 142.7 91.3 125.3 137 116.3C182.7 107.3 228.3 106.7 274 107.2C319.7 107.7 365.3 109.3 411.2 118.5C457 127.7 503 144.3 548.8 141.7C594.7 139 640.3 117 686 107.3C731.7 97.7 777.3 100.3 823 110C868.7 119.7 914.3 136.3 937.2 144.7L960 153L960 0L937.2 0C914.3 0 868.7 0 823 0C777.3 0 731.7 0 686 0C640.3 0 594.7 0 548.8 0C503 0 457 0 411.2 0C365.3 0 319.7 0 274 0C228.3 0 182.7 0 137 0C91.3 0 45.7 0 22.8 0L0 0Z" fill="#fff0e3"></path><path d="M0 93L22.8 92.5C45.7 92 91.3 91 137 94.5C182.7 98 228.3 106 274 102.7C319.7 99.3 365.3 84.7 411.2 76.3C457 68 503 66 548.8 66.3C594.7 66.7 640.3 69.3 686 70C731.7 70.7 777.3 69.3 823 70.2C868.7 71 914.3 74 937.2 75.5L960 77L960 0L937.2 0C914.3 0 868.7 0 823 0C777.3 0 731.7 0 686 0C640.3 0 594.7 0 548.8 0C503 0 457 0 411.2 0C365.3 0 319.7 0 274 0C228.3 0 182.7 0 137 0C91.3 0 45.7 0 22.8 0L0 0Z" fill="#f9f4e3"></path><path d="M0 44L22.8 41.2C45.7 38.3 91.3 32.7 137 29.7C182.7 26.7 228.3 26.3 274 25.8C319.7 25.3 365.3 24.7 411.2 26.5C457 28.3 503 32.7 548.8 33.5C594.7 34.3 640.3 31.7 686 37.3C731.7 43 777.3 57 823 64.5C868.7 72 914.3 73 937.2 73.5L960 74L960 0L937.2 0C914.3 0 868.7 0 823 0C777.3 0 731.7 0 686 0C640.3 0 594.7 0 548.8 0C503 0 457 0 411.2 0C365.3 0 319.7 0 274 0C228.3 0 182.7 0 137 0C91.3 0 45.7 0 22.8 0L0 0Z" fill="#f1f9e7"></path></svg>