<svg id="Groupe_414" data-name="Groupe 414" xmlns="http://www.w3.org/2000/svg" xmlns:xlink="http://www.w3.org/1999/xlink" width="306.866" height="75" viewBox="0 0 306.866 75">
  <defs>
    <clipPath id="clip-path">
      <rect id="Rectangle_249" data-name="Rectangle 249" width="306.866" height="75" fill="none"/>
    </clipPath>
  </defs>
  <g id="Groupe_413" data-name="Groupe 413" clip-path="url(#clip-path)">
    <path id="Tracé_87" data-name="Tracé 87" d="M70.082,20.453a.251.251,0,0,1-.386.211,10.975,10.975,0,0,0-5.421-1.684c-2.246,0-3.316,1.035-3.316,2.4,0,.877.719,1.7,2.017,2.456l3.561,2.14C70.011,28.066,71.4,30.4,71.4,33.4c0,4.228-2.807,8.052-9.052,8.052A18.318,18.318,0,0,1,55.7,40.136a.27.27,0,0,1-.158-.228V34.382a.249.249,0,0,1,.386-.211A11.561,11.561,0,0,0,62.1,36.206c2.14,0,3.316-1.035,3.316-2.491,0-.912-.632-1.737-2.14-2.614l-3.666-2.175c-3.561-2.053-4.666-4.351-4.666-7.386,0-3.754,2.4-7.824,9.368-7.824a14.393,14.393,0,0,1,5.614,1.158.27.27,0,0,1,.158.228v5.351Z" transform="translate(41.443 10.346)" fill="#003057"/>
    <path id="Tracé_88" data-name="Tracé 88" d="M68.482,14.232a.24.24,0,0,1,.246-.246h8.912c5.263,0,8.842,3.193,8.842,8.491S82.885,31,77.639,31H74.078v9.578a.24.24,0,0,1-.246.246H68.728a.24.24,0,0,1-.246-.246V14.232Zm9.087,5.158H74.1V25.6h3.474a2.884,2.884,0,0,0,3.158-3.088,2.919,2.919,0,0,0-3.158-3.123" transform="translate(51.656 10.55)" fill="#003057"/>
    <path id="Tracé_89" data-name="Tracé 89" d="M97.613,30.01H88.368V40.589a.24.24,0,0,1-.246.246H83.018a.24.24,0,0,1-.246-.246V14.222a.24.24,0,0,1,.246-.246h5.105a.24.24,0,0,1,.246.246V24.59h9.245V14.222a.24.24,0,0,1,.246-.246h5.1a.24.24,0,0,1,.246.246V40.589a.24.24,0,0,1-.246.246h-5.1a.24.24,0,0,1-.246-.246Z" transform="translate(62.435 10.542)" fill="#003057"/>
    <path id="Tracé_90" data-name="Tracé 90" d="M99.472,40.589V14.222a.24.24,0,0,1,.246-.246h14.789a.24.24,0,0,1,.246.246v4.912a.24.24,0,0,1-.246.246h-9.421v5.21h8.631a.24.24,0,0,1,.246.246v4.912a.24.24,0,0,1-.246.246h-8.631v5.421h9.421a.24.24,0,0,1,.246.246v4.912a.24.24,0,0,1-.246.246H99.718a.24.24,0,0,1-.246-.246Z" transform="translate(75.032 10.542)" fill="#003057"/>
    <path id="Tracé_91" data-name="Tracé 91" d="M112.832,14.232a.24.24,0,0,1,.246-.246h9.035c5.263,0,8.894,2.842,8.894,7.824a6.587,6.587,0,0,1-4.859,6.789c3.3,1.7,5.3,6.315,5.965,11.964a.25.25,0,0,1-.246.281h-5.316a.246.246,0,0,1-.246-.211c-.965-5.737-3.245-9.789-6.491-9.789h-1.386v9.736a.24.24,0,0,1-.246.246h-5.105a.24.24,0,0,1-.246-.246V14.232Zm9.28,5.158h-3.667v6.052h3.667a2.877,2.877,0,0,0,3.123-3,2.9,2.9,0,0,0-3.123-3.035Z" transform="translate(85.11 10.55)" fill="#003057"/>
    <path id="Tracé_92" data-name="Tracé 92" d="M127.872,40.589V14.222a.24.24,0,0,1,.246-.246h14.789a.24.24,0,0,1,.246.246v4.912a.24.24,0,0,1-.246.246h-9.421v5.21h8.631a.24.24,0,0,1,.246.246v4.912a.24.24,0,0,1-.246.246h-8.631v5.421h9.421a.24.24,0,0,1,.246.246v4.912a.24.24,0,0,1-.246.246H128.118a.24.24,0,0,1-.246-.246Z" transform="translate(96.454 10.542)" fill="#003057"/>
    <path id="Tracé_93" data-name="Tracé 93" d="M46.889,14.185l5.035-7.438a.237.237,0,0,0-.07-.351,37.99,37.99,0,0,0-42.191,0,.24.24,0,0,0-.07.351l5.035,7.438a.268.268,0,0,0,.351.07,28.485,28.485,0,0,1,31.56,0,.254.254,0,0,0,.351-.07" transform="translate(7.199 0)" fill="#003057"/>
    <path id="Tracé_94" data-name="Tracé 94" d="M25.723,16.079a4.23,4.23,0,0,1,4.228,4.228,4.152,4.152,0,0,1-1.246,2.982,4.224,4.224,0,1,1-2.982-7.21m0-5.263h0a9.491,9.491,0,1,0,9.491,9.491,9.486,9.486,0,0,0-9.491-9.491" transform="translate(12.244 8.159)" fill="#003057"/>
    <path id="Tracé_95" data-name="Tracé 95" d="M35.812,35.741a1.234,1.234,0,0,0,.123-.175,18.985,18.985,0,0,0,1.737-18.122.258.258,0,0,0-.456-.035L28.374,30.443a28.135,28.135,0,0,0-.088,31.4.249.249,0,0,0,.281.105,37.348,37.348,0,0,0,5.544-1.7c1.017-.4,2.017-.842,3-1.333a.251.251,0,0,0,.07-.386,19.042,19.042,0,0,1-1.368-22.788" transform="translate(17.75 13.04)" fill="#a4d65e"/>
    <path id="Tracé_96" data-name="Tracé 96" d="M43.638,10.92c-.772-1.14-1.6-2.21-2.456-3.245a.256.256,0,0,0-.4.018l-5.4,7.965c.14.193.281.386.4.579a28.472,28.472,0,0,1,0,31.963s-.105.158-.175.246a9.489,9.489,0,0,0,1.579,12.035.267.267,0,0,0,.351,0l.509-.456A37.964,37.964,0,0,0,43.62,10.9Z" transform="translate(25.748 5.721)" fill="#a4d65e"/>
    <path id="Tracé_97" data-name="Tracé 97" d="M14.406,48.212a28.518,28.518,0,0,1,.3-32.42.237.237,0,0,0,0-.281l-5.3-7.807A.246.246,0,0,0,9,7.688a38.02,38.02,0,0,0,3.631,52.84.267.267,0,0,0,.351,0,9.491,9.491,0,0,0,1.421-12.3Z" transform="translate(0 5.726)" fill="#f8485e"/>
    <path id="Tracé_98" data-name="Tracé 98" d="M14.211,35.738a1.234,1.234,0,0,1-.123-.175,18.985,18.985,0,0,1-1.737-18.122.264.264,0,0,1,.456-.035L21.649,30.44a27.877,27.877,0,0,1,4.719,13.14,27.852,27.852,0,0,1-.737,9.491,27.874,27.874,0,0,1-3.895,8.772.249.249,0,0,1-.281.105,37.352,37.352,0,0,1-5.544-1.7c-1.017-.4-2.017-.842-3-1.333a.251.251,0,0,1-.07-.386,18.923,18.923,0,0,0,4.07-8.228,18.932,18.932,0,0,0-2.7-14.561" transform="translate(8.16 13.042)" fill="#f8485e"/>
    <path id="Tracé_99" data-name="Tracé 99" d="M147,30.846h23.385a3.582,3.582,0,0,1,3.579,3.579v3.228a.685.685,0,0,1-.684.684h-22.56a3.74,3.74,0,0,1-3.737-3.737V30.864Z" transform="translate(110.869 23.267)" fill="#f8485e"/>
    <path id="Tracé_100" data-name="Tracé 100" d="M173.966,27.447h0a13.38,13.38,0,0,0-9.526-12.929A13.565,13.565,0,0,0,147.9,22.552,13.349,13.349,0,0,0,147,26.745a.678.678,0,0,0,.684.7h6.175a.617.617,0,0,0,.632-.561,5.875,5.875,0,0,1,1-2.789,6.012,6.012,0,0,1,9.228-.895,5.958,5.958,0,0,1,1.754,4.245Z" transform="translate(110.884 10.527)" fill="#f8485e"/>
    <path id="Tracé_101" data-name="Tracé 101" d="M169.005,13.964h-7.473a7.468,7.468,0,0,0,7.473,7.473,6.031,6.031,0,0,1,4.245,1.754,5.958,5.958,0,0,1,1.754,4.245H182.5a13.484,13.484,0,0,0-13.491-13.491Z" transform="translate(121.844 10.52)" fill="#a4d65e"/>
    <path id="Tracé_102" data-name="Tracé 102" d="M162.206,8.166h19.613a.685.685,0,0,1,.684.684,6.813,6.813,0,0,1-6.807,6.807H161.522V8.85A.685.685,0,0,1,162.206,8.166Z" transform="translate(121.837 6.16)" fill="#a4d65e"/>
    <path id="Tracé_103" data-name="Tracé 103" d="M166.482,21.646h0l-19.49,13.491h13.157l8.631-5.965a13.446,13.446,0,0,1-2.281-7.508Z" transform="translate(110.877 16.328)" fill="#f8485e"/>
    <path id="Tracé_104" data-name="Tracé 104" d="M158.1,21.646h0a13.491,13.491,0,1,0,26.981,0h-7.491a6,6,0,1,1-12,0Z" transform="translate(119.257 16.328)" fill="#003057"/>
    <path id="Tracé_105" data-name="Tracé 105" d="M167.225,19.746a3.332,3.332,0,0,1,3.333,3.333,3.354,3.354,0,0,1-3.333,3.333,3.333,3.333,0,1,1,0-6.666" transform="translate(123.624 14.894)" fill="#003057"/>
    <path id="Tracé_106" data-name="Tracé 106" d="M168.694,36.733h-2.667l-.561,1.6h-1.754l2.772-7.473h1.754l2.772,7.473h-1.754Zm-2.158-1.509h1.649l-.824-2.333Z" transform="translate(123.489 23.275)" fill="#f8485e"/>
    <path id="Tracé_107" data-name="Tracé 107" d="M170,34v4.316h-1.561V31.775l-.526-.825v-.105h1.842l3.281,4.772V30.846H174.6v7.473h-1.561L169.982,34Z" transform="translate(126.656 23.267)" fill="#f8485e"/>
    <path id="Tracé_108" data-name="Tracé 108" d="M176.54,32.778a3.06,3.06,0,0,0-1.614-.544c-.632,0-.93.281-.93.667,0,.246.193.474.561.684l.982.6a2.3,2.3,0,0,1,1.351,2.07,2.238,2.238,0,0,1-2.526,2.246,5.167,5.167,0,0,1-1.895-.386V36.392a3.254,3.254,0,0,0,1.825.649c.6,0,.93-.281.93-.7,0-.246-.175-.491-.6-.719l-1.017-.6a2.192,2.192,0,0,1-1.3-2.053c0-1.053.667-2.175,2.614-2.175a4.416,4.416,0,0,1,1.614.333v1.649Z" transform="translate(129.976 23.23)" fill="#f8485e"/>
  </g>
</svg>
