<svg id="Groupe_425" data-name="Groupe 425" xmlns="http://www.w3.org/2000/svg" width="394" height="394" viewBox="0 0 394 394">
  <path id="Tracé_122" data-name="Tracé 122" d="M202.088,0h0C93.39,0,5.414,88.122,5.414,197S93.39,394,202.088,394s196.674-88.122,196.674-197S310.786,0,202.088,0" transform="translate(-5.414 0)" fill="#003057"/>
  <path id="Tracé_117" data-name="Tracé 117" d="M96.337,0h0A90.923,90.923,0,1,0,187.26,90.923,90.877,90.877,0,0,0,96.337,0" transform="translate(100.786 105.707)" fill="#fff"/>
  <path id="Tracé_120" data-name="Tracé 120" d="M62.675,29.028,19.129,3.881A6.659,6.659,0,0,0,9.144,9.647V59.928a6.659,6.659,0,0,0,9.985,5.766L62.675,40.547a6.653,6.653,0,0,0,0-11.519" transform="translate(166.33 161.848)" fill="#f8485e"/>
</svg>
