<svg id="visual" viewBox="0 0 900 180" width="900" height="180" xmlns="http://www.w3.org/2000/svg" xmlns:xlink="http://www.w3.org/1999/xlink" version="1.1"><path d="M0 59L82 62L164 60L245 75L327 53L409 55L491 26L573 69L655 69L736 77L818 66L900 21L900 0L818 0L736 0L655 0L573 0L491 0L409 0L327 0L245 0L164 0L82 0L0 0Z" fill="#003057"></path><path d="M0 116L82 107L164 125L245 118L327 102L409 87L491 91L573 116L655 95L736 116L818 93L900 80L900 19L818 64L736 75L655 67L573 67L491 24L409 53L327 51L245 73L164 58L82 60L0 57Z" fill="#b599ad"></path><path d="M0 143L82 145L164 143L245 154L327 143L409 134L491 129L573 140L655 134L736 141L818 127L900 123L900 78L818 91L736 114L655 93L573 114L491 89L409 85L327 100L245 116L164 123L82 105L0 114Z" fill="#ffeaec"></path><path d="M0 156L82 159L164 161L245 170L327 170L409 168L491 150L573 150L655 156L736 168L818 154L900 154L900 121L818 125L736 139L655 132L573 138L491 127L409 132L327 141L245 152L164 141L82 143L0 141Z" fill="#b599ad"></path><path d="M0 181L82 181L164 181L245 181L327 181L409 181L491 181L573 181L655 181L736 181L818 181L900 181L900 152L818 152L736 166L655 154L573 148L491 148L409 166L327 168L245 168L164 159L82 157L0 154Z" fill="#003057"></path></svg>