<svg id="visual" viewBox="0 0 900 150" width="900" height="150" xmlns="http://www.w3.org/2000/svg" xmlns:xlink="http://www.w3.org/1999/xlink" version="1.1"><rect width="900" height="150" fill="#001829"></rect><g><g transform="translate(87 73)"><path d="M0 -66.2L57.3 -33.1L57.3 33.1L0 66.2L-57.3 33.1L-57.3 -33.1Z" stroke="#297EA6" fill="none" stroke-width="2"></path></g><g transform="translate(674 76)"><path d="M0 -36L31.2 -18L31.2 18L0 36L-31.2 18L-31.2 -18Z" stroke="#297EA6" fill="none" stroke-width="2"></path></g><g transform="translate(328 83)"><path d="M0 -47L40.7 -23.5L40.7 23.5L0 47L-40.7 23.5L-40.7 -23.5Z" stroke="#297EA6" fill="none" stroke-width="2"></path></g><g transform="translate(512 75)"><path d="M0 -49L42.4 -24.5L42.4 24.5L0 49L-42.4 24.5L-42.4 -24.5Z" stroke="#297EA6" fill="none" stroke-width="2"></path></g><g transform="translate(818 82)"><path d="M0 -43L37.2 -21.5L37.2 21.5L0 43L-37.2 21.5L-37.2 -21.5Z" stroke="#297EA6" fill="none" stroke-width="2"></path></g></g></svg>