<svg id="visual" viewBox="0 0 960 130" width="960" height="130" xmlns="http://www.w3.org/2000/svg" xmlns:xlink="http://www.w3.org/1999/xlink" version="1.1"><path d="M0 10L87 10L87 11L175 11L175 15L262 15L262 14L349 14L349 14L436 14L436 17L524 17L524 28L611 28L611 23L698 23L698 18L785 18L785 10L873 10L873 28L960 28L960 19L960 0L960 0L873 0L873 0L785 0L785 0L698 0L698 0L611 0L611 0L524 0L524 0L436 0L436 0L349 0L349 0L262 0L262 0L175 0L175 0L87 0L87 0L0 0Z" fill="#c2c8f6"></path><path d="M0 34L87 34L87 35L175 35L175 30L262 30L262 37L349 37L349 39L436 39L436 45L524 45L524 41L611 41L611 45L698 45L698 40L785 40L785 40L873 40L873 54L960 54L960 39L960 17L960 26L873 26L873 8L785 8L785 16L698 16L698 21L611 21L611 26L524 26L524 15L436 15L436 12L349 12L349 12L262 12L262 13L175 13L175 9L87 9L87 8L0 8Z" fill="#c6d5f8"></path><path d="M0 91L87 91L87 69L175 69L175 82L262 82L262 73L349 73L349 70L436 70L436 92L524 92L524 87L611 87L611 70L698 70L698 89L785 89L785 61L873 61L873 83L960 83L960 83L960 37L960 52L873 52L873 38L785 38L785 38L698 38L698 43L611 43L611 39L524 39L524 43L436 43L436 37L349 37L349 35L262 35L262 28L175 28L175 33L87 33L87 32L0 32Z" fill="#d0e1f8"></path><path d="M0 115L87 115L87 115L175 115L175 117L262 117L262 114L349 114L349 109L436 109L436 112L524 112L524 123L611 123L611 122L698 122L698 117L785 117L785 117L873 117L873 119L960 119L960 119L960 81L960 81L873 81L873 59L785 59L785 87L698 87L698 68L611 68L611 85L524 85L524 90L436 90L436 68L349 68L349 71L262 71L262 80L175 80L175 67L87 67L87 89L0 89Z" fill="#dfecf7"></path><path d="M0 131L87 131L87 131L175 131L175 131L262 131L262 131L349 131L349 131L436 131L436 131L524 131L524 131L611 131L611 131L698 131L698 131L785 131L785 131L873 131L873 131L960 131L960 131L960 117L960 117L873 117L873 115L785 115L785 115L698 115L698 120L611 120L611 121L524 121L524 110L436 110L436 107L349 107L349 112L262 112L262 115L175 115L175 113L87 113L87 113L0 113Z" fill="#f2f5f7"></path></svg>