<svg id="visual" viewBox="0 0 900 200" width="900" height="200" xmlns="http://www.w3.org/2000/svg" xmlns:xlink="http://www.w3.org/1999/xlink" version="1.1"><path d="M0 27L82 41L164 29L245 39L327 53L409 29L491 31L573 15L655 39L736 25L818 45L900 39L900 0L818 0L736 0L655 0L573 0L491 0L409 0L327 0L245 0L164 0L82 0L0 0Z" fill="#003057"></path><path d="M0 81L82 75L164 59L245 79L327 119L409 81L491 91L573 53L655 97L736 63L818 113L900 85L900 37L818 43L736 23L655 37L573 13L491 29L409 27L327 51L245 37L164 27L82 39L0 25Z" fill="#1c4a77"></path><path d="M0 115L82 97L164 93L245 113L327 143L409 105L491 105L573 87L655 119L736 97L818 145L900 99L900 83L818 111L736 61L655 95L573 51L491 89L409 79L327 117L245 77L164 57L82 73L0 79Z" fill="#336699"></path><path d="M0 143L82 113L164 119L245 131L327 159L409 131L491 123L573 117L655 139L736 119L818 155L900 125L900 97L818 143L736 95L655 117L573 85L491 103L409 103L327 141L245 111L164 91L82 95L0 113Z" fill="#336699"></path><path d="M0 179L82 185L164 177L245 173L327 191L409 189L491 187L573 175L655 181L736 183L818 185L900 181L900 123L818 153L736 117L655 137L573 115L491 121L409 129L327 157L245 129L164 117L82 111L0 141Z" fill="#1c4a77"></path><path d="M0 201L82 201L164 201L245 201L327 201L409 201L491 201L573 201L655 201L736 201L818 201L900 201L900 179L818 183L736 181L655 179L573 173L491 185L409 187L327 189L245 171L164 175L82 183L0 177Z" fill="#003057"></path></svg>