<svg width="2000" height="1400" xmlns="http://www.w3.org/2000/svg"><path fill="none" d="M0 0h2000v1400H0z"/><path d="M0 70h0c95.385 3.764 190.77 7.529 316 11 125.23 3.471 280.308 6.65 387 3 106.692-3.65 165-14.127 268-18 103-3.873 250.69-1.141 370 3s210.237 9.692 331 8c120.763-1.692 271.36-10.626 331-13 59.64-2.374 28.32 1.813 37 6" fill="none" stroke="#cac6ea" stroke-width="6" stroke-linecap="round"/><path d="M0 140h0c96.832-8.194 193.663-16.387 300-14 106.337 2.387 222.18 15.356 333 16 110.82.644 216.62-11.037 341-11 124.38.037 267.339 11.794 383 19 115.661 7.206 204.024 9.863 322 4 117.976-5.863 265.565-20.247 324-24s27.718 3.123 37 10" fill="none" stroke="#eae9f7" stroke-width="6" stroke-linecap="round"/><path d="M0 210h0c119.925-1.754 239.85-3.508 342-6s186.527-5.722 297-1c110.473 4.722 247.041 17.395 362 18 114.959.605 208.309-10.858 317-13 108.691-2.142 232.725 5.039 356 3 123.275-2.039 245.793-13.297 300-15 54.207-1.703 40.104 6.148 66 14" fill="none" stroke="#e0def3" stroke-width="6" stroke-linecap="round"/><path d="M0 280h0c93.182 6.393 186.364 12.786 302 15 115.636 2.214 253.726.25 378-6s234.73-16.782 346-20c111.27-3.218 223.35.88 333 3s216.867 2.263 339 0c122.133-2.263 259.18-6.932 312-6 52.82.932 21.41 7.466 30 14" fill="none" stroke="#ebeaf7" stroke-width="6" stroke-linecap="round"/><path d="M0 350h0c111.653-2.637 223.307-5.274 338-4 114.693 1.274 232.427 6.458 338 9 105.573 2.542 198.985 2.44 315 3 116.015.56 254.633 1.779 371-4 116.367-5.779 210.483-18.556 333-18 122.517.556 273.433 14.445 329 19 55.567 4.555 15.783-.222 16-5" fill="none" stroke="#eeecf8" stroke-width="6" stroke-linecap="round"/><path d="M0 420h0c124.774 6.728 249.548 13.457 352 10 102.452-3.457 182.583-17.098 286-20 103.417-2.902 230.12 4.935 343 5 112.88.065 211.937-7.642 316-10 104.063-2.358 213.132.634 340 4s271.534 7.104 335 9c63.466 1.896 45.733 1.948 68 2" fill="none" stroke="#ecebf7" stroke-width="6" stroke-linecap="round"/><path d="M0 490h0c111.266-7.967 222.532-15.934 337-16 114.468-.066 232.14 7.77 341 8 108.86.23 208.91-7.143 317-6 108.09 1.143 224.22 10.801 327 18s192.21 11.938 321 6c128.79-5.938 296.94-22.554 363-26 66.06-3.446 30.03 6.277 34 16" fill="none" stroke="#d2cfee" stroke-width="6" stroke-linecap="round"/><path d="M0 560h0c101.282-3.119 202.563-6.237 323-9 120.437-2.763 260.029-5.17 370 0s190.321 17.919 289 21c98.679 3.081 215.687-3.504 338-5 122.313-1.496 249.93 2.097 370-1s232.591-12.885 283-15c50.409-2.115 38.704 3.442 67 9" fill="none" stroke="#dddbf2" stroke-width="6" stroke-linecap="round"/><path d="M0 630h0c122.57 5.497 245.138 10.994 362 13 116.862 2.006 228.016.52 336-5 107.984-5.52 212.797-15.076 319-20 106.203-4.924 213.797-5.217 325 1s226.016 18.943 357 23c130.984 4.057 278.138-.555 331-4 52.862-3.445 11.43-5.722 10-8" fill="none" stroke="#c7c3e9" stroke-width="6" stroke-linecap="round"/><path d="M0 700h0c118.36-1.579 236.72-3.158 344-7s203.478-9.948 310-8c106.522 1.948 223.366 11.95 340 17 116.634 5.05 233.056 5.147 350 0 116.944-5.147 234.408-15.54 354-18 119.592-2.46 241.312 3.011 292 7 50.688 3.989 30.344 6.494 50 9" fill="none" stroke="#d1cded" stroke-width="6" stroke-linecap="round"/><path d="M0 770h0c101.407 1.226 202.813 2.451 322 6 119.187 3.549 256.154 9.42 365 3s189.572-25.132 295-24c105.428 1.132 235.558 22.108 356 28 120.442 5.892 231.196-3.298 362-8s281.658-4.915 335-5c53.342-.085 9.17-.043 5 0M0 840h0c116.315-9.161 232.63-18.322 339-14 106.37 4.322 202.796 22.128 314 23 111.204.872 237.187-15.189 365-22 127.813-6.811 257.455-4.372 351-2 93.545 2.372 150.993 4.677 274 11s311.573 16.664 382 18c70.427 1.336 22.713-6.332 15-14" fill="none" stroke="#f3f2fa" stroke-width="6" stroke-linecap="round"/><path d="M0 910h0c103.666 2.658 207.331 5.316 321 7 113.669 1.684 237.34 2.393 346 3 108.66.607 202.307 1.113 319 1 116.693-.113 256.433-.845 358-7 101.567-6.155 164.96-17.734 289-19 124.04-1.266 308.726 7.781 380 12s29.137 3.61 27 3M0 980h0c116.812-9.182 233.623-18.363 341-13 107.377 5.363 205.319 25.272 320 27 114.681 1.728 246.102-14.725 353-20s189.271.627 289 2c99.729 1.373 216.812-1.784 360 2s312.482 14.51 373 16c60.518 1.49 12.259-6.255 4-14" fill="none" stroke="#d4d1ee" stroke-width="6" stroke-linecap="round"/><path d="M0 1050h0c128.904-3.45 257.809-6.9 368-4 110.191 2.9 201.67 12.148 305 16 103.33 3.852 218.514 2.308 321 0 102.486-2.308 192.275-5.382 308-9 115.725-3.618 257.388-7.782 387-5 129.612 2.782 247.175 12.51 297 14 49.825 1.49 31.913-5.255 54-12" fill="none" stroke="#dddaf2" stroke-width="6" stroke-linecap="round"/><path d="M0 1120h0c91.354.5 182.709 1.002 305-3s275.52-12.506 383-13c107.48-.494 169.214 7.022 277 13s261.623 10.417 389 14c127.377 3.583 228.294 6.31 338 2 109.706-4.31 228.202-15.66 281-19s39.9 1.33 67 6" fill="none" stroke="#d8d6f0" stroke-width="6" stroke-linecap="round"/><path d="M0 1190h0c93.749-2.23 187.498-4.462 302-7 114.502-2.538 249.759-5.384 370-7 120.241-1.616 225.468-2.002 323-1 97.532 1.002 187.37 3.392 303 5s257.054 2.433 384 2c126.946-.433 239.413-2.124 290-1 50.587 1.124 39.293 5.062 68 9" fill="none" stroke="#eeecf8" stroke-width="6" stroke-linecap="round"/><path d="M0 1260h0c110.735-7.232 221.47-14.464 329-9s211.857 23.623 330 22c118.143-1.623 250.102-23.029 362-26s203.736 12.492 306 20c102.264 7.508 214.956 7.06 338 2 123.044-5.06 256.441-14.731 314-17 57.559-2.269 39.28 2.866 61 8" fill="none" stroke="#e3e1f4" stroke-width="6" stroke-linecap="round"/><path d="M0 1330h0c123.561-4.635 247.122-9.27 354-5 106.878 4.27 197.072 17.444 303 19 105.928 1.556 227.591-8.506 339-14 111.409-5.494 212.563-6.421 327-7 114.437-.579 242.156-.81 377-2s276.813-3.34 328-2c51.187 1.34 11.594 6.17 12 11" fill="none" stroke="#f3f2fa" stroke-width="6" stroke-linecap="round"/></svg>
